<svg width="563" height="938" viewBox="0 0 563 938" fill="none" xmlns="http://www.w3.org/2000/svg">
<path d="M562.5 812.5L432.688 625H497.594L389.422 468.75H454.328L346.156 328.125H411.062L281.25 125L151.437 328.125H216.344L108.172 468.75H173.078L64.9062 625H129.813L0 812.5H562.5Z" fill="#7EA82D"/>
<path d="M336.801 44.25L319.457 18.25L296.879 33.3125V0H265.629V33.3125L243.051 18.25L225.707 44.25L253.082 62.5L225.707 80.75L243.051 106.75L265.629 91.6875V125H296.879V91.6875L319.457 106.75L336.801 80.75L309.426 62.5L336.801 44.25Z" fill="#FDB62F"/>
<path d="M328.125 812.5H234.375V921.875H328.125V812.5Z" fill="#80421C"/>
<path d="M406.25 906.25H156.25V937.5H406.25V906.25Z" fill="#80421C"/>
<path d="M312.5 562.5C329.759 562.5 343.75 548.509 343.75 531.25C343.75 513.991 329.759 500 312.5 500C295.241 500 281.25 513.991 281.25 531.25C281.25 548.509 295.241 562.5 312.5 562.5Z" fill="#DD4A43"/>
<path d="M187.5 750C204.759 750 218.75 736.009 218.75 718.75C218.75 701.491 204.759 687.5 187.5 687.5C170.241 687.5 156.25 701.491 156.25 718.75C156.25 736.009 170.241 750 187.5 750Z" fill="#DD4A43"/>
<path d="M312.5 265.625H281.25V296.875H312.5V265.625Z" fill="#FDB62F"/>
<path d="M250 406.25H218.75V437.5H250V406.25Z" fill="#FDB62F"/>
<path d="M406.25 703.125H375V734.375H406.25V703.125Z" fill="#FDB62F"/>
<path d="M234.375 593.75H203.125V625H234.375V593.75Z" fill="#FDB62F"/>
<path d="M328.125 812.5H234.375V843.75H328.125V812.5Z" fill="#70320F"/>
</svg>
