<svg width="938" height="907" viewBox="0 0 938 907" fill="none" xmlns="http://www.w3.org/2000/svg">
<path d="M468.755 0.000153478C432.54 -0.0462029 397.088 10.4095 366.694 30.1007C336.3 49.7919 312.268 77.8739 297.508 110.945C282.749 144.016 277.895 180.657 283.535 216.431C289.175 252.204 305.068 285.575 329.287 312.5H608.224C632.443 285.575 648.335 252.204 653.976 216.431C659.616 180.657 654.762 144.016 640.003 110.945C625.243 77.8739 601.211 49.7919 570.816 30.1007C540.422 10.4095 504.971 -0.0462029 468.755 0.000153478Z" fill="#EBEBE8"/>
<path d="M656.227 187.497C656.252 162.69 651.338 138.126 641.771 115.238C632.205 92.3499 618.178 71.5952 600.508 54.1842C577.68 178.309 494.133 260.528 412.477 312.497H608.195C639.123 278.21 656.237 233.672 656.227 187.497Z" fill="#E3E3E1"/>
<path d="M140.625 343.75H109.375V399.781L26.6719 317.078L4.57812 339.171L56.0312 390.625H0V421.875H87.2812L218.75 553.343L240.844 531.25L140.625 431.031V343.75Z" fill="#A65B2D"/>
<path d="M937.5 390.625H881.469L932.922 339.171L910.828 317.078L828.125 399.781V343.75H796.875V431.031L687.5 540.406L709.594 562.499L850.219 421.875H937.5V390.625Z" fill="#A65B2D"/>
<path d="M763.703 606.423C758.929 565.611 745.734 526.235 724.954 490.786C704.175 455.337 676.263 424.588 642.984 400.485L294.359 400.36C256.401 427.872 225.508 463.993 204.216 505.759C182.924 547.526 171.841 593.746 171.875 640.626C171.875 646.449 172.042 652.23 172.375 657.969C180.5 798.719 302.063 906.251 443.109 906.251H493.969C564.706 906.849 632.841 879.607 683.666 830.404C734.492 781.202 763.929 713.986 765.625 643.266C765.725 630.958 765.084 618.654 763.703 606.423Z" fill="#EBEBE8"/>
<path d="M763.691 606.423C756.393 543.306 728.859 484.248 685.207 438.08C619.457 712.189 390.16 794.33 241.457 818.58C267.252 846.248 298.466 868.31 333.157 883.393C367.847 898.476 405.27 906.257 443.098 906.252H493.957C564.694 906.85 632.829 879.608 683.655 830.405C734.48 781.203 763.917 713.986 765.613 643.267C765.714 630.958 765.072 618.655 763.691 606.423Z" fill="#E3E3E1"/>
<path d="M468.75 265.625C452.174 265.625 436.277 259.04 424.556 247.319C412.835 235.598 406.25 219.701 406.25 203.125H437.5C437.5 211.413 440.792 219.362 446.653 225.222C452.513 231.083 460.462 234.375 468.75 234.375C477.038 234.375 484.987 231.083 490.847 225.222C496.708 219.362 500 211.413 500 203.125H531.25C531.25 219.701 524.665 235.598 512.944 247.319C501.223 259.04 485.326 265.625 468.75 265.625Z" fill="#A6A6A4"/>
<path d="M468.75 546.875C486.009 546.875 500 532.884 500 515.625C500 498.366 486.009 484.375 468.75 484.375C451.491 484.375 437.5 498.366 437.5 515.625C437.5 532.884 451.491 546.875 468.75 546.875Z" fill="#A6A6A4"/>
<path d="M468.75 687.5C486.009 687.5 500 673.509 500 656.25C500 638.991 486.009 625 468.75 625C451.491 625 437.5 638.991 437.5 656.25C437.5 673.509 451.491 687.5 468.75 687.5Z" fill="#A6A6A4"/>
<path d="M468.75 828.125C486.009 828.125 500 814.134 500 796.875C500 779.616 486.009 765.625 468.75 765.625C451.491 765.625 437.5 779.616 437.5 796.875C437.5 814.134 451.491 828.125 468.75 828.125Z" fill="#A6A6A4"/>
<path d="M687.5 687.5H562.5V406.25L638.344 390.297L687.5 687.5Z" fill="#DD4A43"/>
<path d="M250 640.626H218.75C218.733 606.197 225.885 572.141 239.75 540.626L268.375 553.126C256.244 580.702 249.986 610.501 250 640.626Z" fill="white"/>
<path d="M283.824 523.952L257.387 507.295C265.586 494.29 274.959 482.062 285.387 470.764L308.324 491.983C299.197 501.868 290.996 512.569 283.824 523.952Z" fill="white"/>
<path d="M375 187.5C392.259 187.5 406.25 173.509 406.25 156.25C406.25 138.991 392.259 125 375 125C357.741 125 343.75 138.991 343.75 156.25C343.75 173.509 357.741 187.5 375 187.5Z" fill="#7A4321"/>
<path d="M562.5 187.5C579.759 187.5 593.75 173.509 593.75 156.25C593.75 138.991 579.759 125 562.5 125C545.241 125 531.25 138.991 531.25 156.25C531.25 173.509 545.241 187.5 562.5 187.5Z" fill="#7A4321"/>
<path d="M653.641 484.375H562.5V515.625H658.859L653.641 484.375Z" fill="#7EA82D"/>
<path d="M562.5 578.125V609.375H674.484L669.266 578.125H562.5Z" fill="#7EA82D"/>
<path d="M644.703 428.719L638.344 390.297L562.5 406.25V428.719H644.703Z" fill="#D13E37"/>
<path d="M625 312.5H312.5C295.241 312.5 281.25 326.491 281.25 343.75V375C281.25 392.259 295.241 406.25 312.5 406.25H625C642.259 406.25 656.25 392.259 656.25 375V343.75C656.25 326.491 642.259 312.5 625 312.5Z" fill="#DD4A43"/>
<path d="M625 375H312.5C304.212 375 296.263 371.708 290.403 365.847C284.542 359.987 281.25 352.038 281.25 343.75V375C281.25 383.288 284.542 391.237 290.403 397.097C296.263 402.958 304.212 406.25 312.5 406.25H625C633.288 406.25 641.237 402.958 647.097 397.097C652.958 391.237 656.25 383.288 656.25 375V343.75C656.25 352.038 652.958 359.987 647.097 365.847C641.237 371.708 633.288 375 625 375Z" fill="#D13E37"/>
<path d="M390.625 312.5H359.375V406.25H390.625V312.5Z" fill="#7EA82D"/>
<path d="M484.375 312.5H453.125V406.25H484.375V312.5Z" fill="#7EA82D"/>
<path d="M578.125 312.5H546.875V406.25H578.125V312.5Z" fill="#7EA82D"/>
<path d="M390.625 375H359.375V406.25H390.625V375Z" fill="#729C22"/>
<path d="M484.375 375H453.125V406.25H484.375V375Z" fill="#729C22"/>
<path d="M578.125 375H546.875V406.25H578.125V375Z" fill="#729C22"/>
</svg>
