<svg width="720" height="923" viewBox="0 0 720 923" fill="none" xmlns="http://www.w3.org/2000/svg">
<path d="M359.375 125C347.014 125 334.93 121.334 324.652 114.467C314.374 107.599 306.363 97.8381 301.633 86.4177C296.902 74.9974 295.664 62.4307 298.076 50.3069C300.488 38.1831 306.44 27.0466 315.181 18.3059C323.922 9.56507 335.058 3.61252 347.182 1.20095C359.306 -1.21063 371.872 0.0270801 383.293 4.75756C394.713 9.48803 404.474 17.4988 411.342 27.7769C418.209 38.055 421.875 50.1387 421.875 62.5C421.875 79.0761 415.29 94.9732 403.569 106.694C391.848 118.415 375.951 125 359.375 125ZM359.375 31.25C353.194 31.25 347.152 33.0828 342.013 36.5166C336.874 39.9504 332.869 44.831 330.504 50.5412C328.139 56.2514 327.52 62.5347 328.725 68.5966C329.931 74.6585 332.908 80.2267 337.278 84.5971C341.648 88.9675 347.217 91.9438 353.278 93.1496C359.34 94.3554 365.624 93.7365 371.334 91.3713C377.044 89.006 381.925 85.0006 385.358 79.8616C388.792 74.7226 390.625 68.6807 390.625 62.5C390.625 54.212 387.333 46.2635 381.472 40.4029C375.612 34.5424 367.663 31.25 359.375 31.25Z" fill="#FDAB26"/>
<path d="M437.5 109.375H281.25V234.375H437.5V109.375Z" fill="#FDB62F"/>
<path d="M437.5 109.375H375V234.375H437.5V109.375Z" fill="#FDAB26"/>
<path d="M359.375 921.875C557.852 921.875 718.75 760.977 718.75 562.5C718.75 364.023 557.852 203.125 359.375 203.125C160.898 203.125 0 364.023 0 562.5C0 760.977 160.898 921.875 359.375 921.875Z" fill="#DD4A43"/>
<path d="M553.672 260.246C577.975 327.878 584.366 400.648 572.223 471.48C560.081 542.313 529.818 608.799 484.377 664.476C438.937 720.152 379.864 763.124 312.901 789.215C245.939 815.306 173.365 823.628 102.234 813.371C137.549 849.732 180.157 878.212 227.259 896.939C274.361 915.666 324.891 924.217 375.533 922.031C426.174 919.845 475.779 906.971 521.092 884.254C566.405 861.538 606.4 829.492 638.45 790.223C670.5 750.953 693.88 705.348 707.056 656.402C720.231 607.456 722.903 556.277 714.896 506.225C706.89 456.173 688.386 408.381 660.599 365.988C632.813 323.594 596.373 287.558 553.672 260.246Z" fill="#D13E37"/>
<path d="M666.012 750H52.793C70.5345 778.947 92.2693 805.248 117.355 828.125H601.449C626.535 805.248 648.27 778.947 666.012 750Z" fill="#7EA82D"/>
<path d="M601.449 296.875H117.355C92.2693 319.752 70.5345 346.053 52.793 375H666.012C648.27 346.053 626.535 319.752 601.449 296.875Z" fill="#7EA82D"/>
<path d="M717.188 529.688L640.625 453.125L546.875 546.875L453.125 453.125L359.375 546.875L265.625 453.125L171.875 546.875L78.125 453.125L1.56251 529.688C0.578131 540.5 0 551.438 0 562.5C0.0104901 590.731 3.34596 618.862 9.9375 646.312L78.125 578.125L171.875 671.875L265.625 578.125L359.375 671.875L453.125 578.125L546.875 671.875L640.625 578.125L708.812 646.312C715.404 618.862 718.74 590.731 718.75 562.5C718.75 551.438 718.172 540.5 717.188 529.688Z" fill="#7EA82D"/>
</svg>
