<svg width="719" height="907" viewBox="0 0 719 907" fill="none" xmlns="http://www.w3.org/2000/svg">
<path d="M531.25 0H31.25C13.9911 0 0 13.9911 0 31.25V156.25C0 173.509 13.9911 187.5 31.25 187.5H531.25C548.509 187.5 562.5 173.509 562.5 156.25V31.25C562.5 13.9911 548.509 0 531.25 0Z" fill="#E3E3E1"/>
<path d="M531.25 0H500V93.75C500 102.038 496.708 109.987 490.847 115.847C484.987 121.708 477.038 125 468.75 125H0V156.25C0 164.538 3.29241 172.487 9.15292 178.347C15.0134 184.208 22.962 187.5 31.25 187.5H531.25C539.538 187.5 547.487 184.208 553.347 178.347C559.208 172.487 562.5 164.538 562.5 156.25V31.25C562.5 22.962 559.208 15.0134 553.347 9.15291C547.487 3.2924 539.538 0 531.25 0Z" fill="#DBDBD9"/>
<path d="M696.203 539.062L517.078 359.375V187.5H47.5469V671.484C47.5469 733.748 72.281 793.462 116.308 837.489C160.335 881.516 220.049 906.25 282.313 906.25C313.142 906.25 343.67 900.178 372.153 888.38C400.637 876.581 426.517 859.289 448.317 837.489C470.117 815.689 487.41 789.808 499.208 761.325C511.006 732.842 517.078 702.314 517.078 671.484V578.125L586.641 648.141C593.811 655.351 602.333 661.076 611.719 664.988C621.105 668.899 631.171 670.921 641.339 670.937C651.508 670.953 661.58 668.963 670.978 665.081C680.376 661.198 688.917 655.5 696.109 648.312C710.602 633.834 718.753 614.193 718.77 593.707C718.788 573.221 710.671 553.566 696.203 539.062Z" fill="#DD4A43"/>
<path d="M429.221 560.941C420.677 556.181 410.886 554.138 401.152 555.084C391.418 556.031 382.203 559.921 374.736 566.237L312.971 531.253L374.83 496.269C382.239 502.658 391.442 506.6 401.179 507.557C410.916 508.513 420.71 506.437 429.221 501.612C434.675 498.57 439.461 494.463 443.297 489.535C447.133 484.607 449.939 478.959 451.549 472.925C453.164 466.977 453.567 460.766 452.735 454.66C451.903 448.553 449.853 442.677 446.705 437.378C440.271 426.65 429.909 418.854 417.818 415.644C405.728 412.435 392.862 414.066 381.955 420.191C376.505 423.237 371.723 427.348 367.893 432.278C364.062 437.209 361.262 442.859 359.658 448.894C357.926 455.531 357.702 462.471 359.002 469.206L296.861 504.472V434.691C307.47 430.998 316.427 423.668 322.146 414.001C327.865 404.333 329.975 392.953 328.103 381.878C326.23 370.802 320.496 360.748 311.917 353.498C303.338 346.248 292.469 342.27 281.236 342.27C270.004 342.27 259.135 346.248 250.556 353.498C241.977 360.748 236.243 370.802 234.37 381.878C232.498 392.953 234.608 404.333 240.327 414.001C246.046 423.668 255.003 430.998 265.611 434.691V504.472L203.502 469.362C204.803 462.628 204.578 455.687 202.846 449.05C201.242 443.012 198.442 437.357 194.612 432.421C190.781 427.486 185.999 423.369 180.549 420.316C169.642 414.191 156.776 412.56 144.686 415.769C132.596 418.979 122.233 426.775 115.799 437.503C112.652 442.802 110.601 448.678 109.769 454.785C108.937 460.891 109.34 467.103 110.955 473.05C112.582 479.05 115.393 484.663 119.222 489.561C123.052 494.458 127.822 498.54 133.252 501.566C141.767 506.382 151.56 508.451 161.295 507.492C171.03 506.533 180.232 502.591 187.643 496.206L249.502 531.253L187.752 566.175C180.282 559.859 171.065 555.969 161.328 555.023C151.592 554.077 141.799 556.119 133.252 560.878C127.797 563.922 123.009 568.031 119.173 572.962C115.338 577.893 112.532 583.545 110.924 589.581C109.309 595.529 108.906 601.74 109.738 607.846C110.57 613.953 112.62 619.83 115.768 625.128C122.225 635.84 132.602 643.613 144.697 646.799C156.792 649.985 169.653 648.332 180.549 642.191C185.999 639.144 190.781 635.034 194.612 630.103C198.442 625.172 201.242 619.522 202.846 613.487C204.578 606.85 204.803 599.91 203.502 593.175L265.611 558.034V627.816C255.003 631.508 246.046 638.838 240.327 648.505C234.608 658.173 232.498 669.553 234.37 680.629C236.243 691.704 241.977 701.758 250.556 709.008C259.135 716.259 270.004 720.236 281.236 720.236C292.469 720.236 303.338 716.259 311.917 709.008C320.496 701.758 326.23 691.704 328.103 680.629C329.975 669.553 327.865 658.173 322.146 648.505C316.427 638.838 307.47 631.508 296.861 627.816V558.034L358.971 593.144C357.67 599.879 357.895 606.819 359.627 613.456C361.227 619.496 364.026 625.152 367.856 630.089C371.686 635.025 376.471 639.141 381.924 642.191C392.834 648.303 405.695 649.927 417.782 646.719C429.869 643.51 440.232 635.722 446.674 625.003C449.821 619.705 451.872 613.828 452.704 607.721C453.536 601.615 453.133 595.404 451.518 589.456C449.887 583.458 447.074 577.846 443.245 572.95C439.417 568.053 434.648 563.97 429.221 560.941ZM389.799 457.112C390.347 455.094 391.294 453.207 392.585 451.561C393.876 449.916 395.485 448.547 397.315 447.534C401.074 445.401 405.516 444.812 409.702 445.89C413.888 446.969 417.491 449.631 419.752 453.316C420.772 455.043 421.436 456.958 421.704 458.947C421.973 460.935 421.84 462.957 421.315 464.894C420.765 466.909 419.816 468.794 418.525 470.436C417.234 472.079 415.627 473.446 413.799 474.456C410.046 476.602 405.605 477.2 401.418 476.124C397.231 475.047 393.629 472.38 391.377 468.691C390.343 466.957 389.671 465.032 389.4 463.031C389.129 461.031 389.264 458.996 389.799 457.05V457.112ZM281.236 375.003C284.296 375.132 287.249 376.156 289.731 377.949C292.213 379.743 294.113 382.225 295.196 385.089C296.278 387.953 296.496 391.072 295.821 394.059C295.146 397.045 293.608 399.768 291.399 401.888C289.19 404.008 286.407 405.432 283.395 405.984C280.383 406.535 277.276 406.19 274.459 404.99C271.642 403.791 269.239 401.79 267.55 399.237C265.86 396.683 264.958 393.69 264.955 390.628C265.05 386.399 266.816 382.381 269.868 379.452C272.919 376.523 277.008 374.923 281.236 375.003ZM171.065 468.628C168.815 472.321 165.214 474.99 161.027 476.07C156.84 477.149 152.397 476.554 148.643 474.409C146.813 473.397 145.205 472.028 143.914 470.382C142.623 468.737 141.675 466.849 141.127 464.831C140.602 462.895 140.469 460.873 140.737 458.884C141.006 456.896 141.669 454.981 142.69 453.253C144.948 449.565 148.551 446.901 152.738 445.822C156.926 444.743 161.368 445.335 165.127 447.472C166.957 448.484 168.565 449.853 169.856 451.499C171.147 453.144 172.095 455.032 172.643 457.05C173.169 458.987 173.3 461.01 173.029 462.999C172.758 464.988 172.09 466.902 171.065 468.628ZM172.627 605.456C172.077 607.472 171.129 609.356 169.838 610.999C168.547 612.641 166.94 614.008 165.111 615.019C161.358 617.173 156.912 617.776 152.72 616.699C148.528 615.622 144.923 612.95 142.674 609.253C141.654 607.525 140.99 605.611 140.722 603.622C140.453 601.634 140.586 599.611 141.111 597.675C141.659 595.657 142.607 593.769 143.898 592.124C145.189 590.478 146.797 589.109 148.627 588.097C152.384 585.96 156.824 585.369 161.008 586.448C165.193 587.527 168.794 590.192 171.049 593.878C172.082 595.601 172.758 597.513 173.037 599.502C173.316 601.491 173.193 603.516 172.674 605.456H172.627ZM281.236 687.503C278.177 687.374 275.223 686.35 272.742 684.557C270.26 682.764 268.36 680.281 267.277 677.417C266.194 674.553 265.977 671.434 266.652 668.447C267.327 665.461 268.865 662.738 271.074 660.618C273.283 658.498 276.066 657.074 279.078 656.523C282.089 655.971 285.197 656.316 288.014 657.516C290.831 658.715 293.234 660.716 294.923 663.269C296.613 665.823 297.515 668.816 297.518 671.878C297.423 676.107 295.657 680.126 292.605 683.054C289.553 685.983 285.465 687.583 281.236 687.503ZM419.752 609.253C417.497 612.944 413.893 615.611 409.705 616.69C405.516 617.77 401.072 617.176 397.315 615.034C395.485 614.022 393.876 612.653 392.585 611.007C391.294 609.362 390.347 607.474 389.799 605.456C389.271 603.52 389.137 601.497 389.405 599.509C389.674 597.52 390.339 595.605 391.361 593.878C393.614 590.189 397.215 587.521 401.4 586.442C405.586 585.363 410.028 585.956 413.783 588.097C415.613 589.109 417.221 590.478 418.512 592.124C419.803 593.769 420.751 595.657 421.299 597.675C421.827 599.61 421.962 601.632 421.696 603.62C421.431 605.609 420.77 607.524 419.752 609.253Z" fill="#E3E3E1"/>
<path d="M312.5 265.625H250V296.875H312.5V265.625Z" fill="#B0342E"/>
<path d="M437.5 265.625H375V296.875H437.5V265.625Z" fill="#B0342E"/>
<path d="M187.5 265.625H125V296.875H187.5V265.625Z" fill="#B0342E"/>
<path d="M312.5 765.625H250V796.875H312.5V765.625Z" fill="#B0342E"/>
<path d="M437.5 765.625H375V796.875H437.5V765.625Z" fill="#B0342E"/>
<path d="M187.5 765.625H125V796.875H187.5V765.625Z" fill="#B0342E"/>
<path d="M328.125 46.875H296.875V187.5H328.125V46.875Z" fill="#C9C9C8"/>
<path d="M265.625 46.875H234.375V187.5H265.625V46.875Z" fill="#C9C9C8"/>
<path d="M203.125 46.875H171.875V187.5H203.125V46.875Z" fill="#C9C9C8"/>
<path d="M140.625 46.875H109.375V187.5H140.625V46.875Z" fill="#C9C9C8"/>
<path d="M515.625 46.875H484.375V187.5H515.625V46.875Z" fill="#C9C9C8"/>
<path d="M453.125 46.875H421.875V187.5H453.125V46.875Z" fill="#C9C9C8"/>
<path d="M390.625 46.875H359.375V187.5H390.625V46.875Z" fill="#C9C9C8"/>
<path d="M78.125 109.375H46.875V187.5H78.125V109.375Z" fill="#C9C9C8"/>
<path d="M78.125 46.875H46.875V78.125H78.125V46.875Z" fill="#C9C9C8"/>
<path d="M515.625 187.5H46.875V234.375H515.625V187.5Z" fill="#D13E37"/>
</svg>
