<svg width="907" height="907" viewBox="0 0 907 907" fill="none" xmlns="http://www.w3.org/2000/svg">
<path d="M906.25 802.529C906.248 796.099 904.743 789.759 901.857 784.013C898.971 778.268 894.782 773.276 889.625 769.435L843.75 735.342V406.264C843.75 339.96 817.411 276.371 770.527 229.487C723.643 182.603 660.054 156.264 593.75 156.264L656.25 22.8105L625 7.32611C615.288 2.50736 604.592 0 593.75 0C582.908 0 572.212 2.50736 562.5 7.32611C552.788 12.1449 542.092 14.6522 531.25 14.6522C520.408 14.6522 509.712 12.1449 500 7.32611C490.288 2.50736 479.592 0 468.75 0C457.908 0 447.212 2.50736 437.5 7.32611L406.25 22.8105L468.75 156.264C402.446 156.264 338.857 182.603 291.973 229.487C245.089 276.371 218.75 339.96 218.75 406.264V734.389L172.625 769.373C167.538 773.237 163.413 778.224 160.572 783.946C157.731 789.668 156.252 795.969 156.25 802.357C156.248 807.795 157.318 813.181 159.398 818.205C161.478 823.23 164.528 827.795 168.373 831.641C172.218 835.486 176.784 838.536 181.808 840.616C186.833 842.696 192.218 843.766 197.656 843.764H865.016C875.95 843.759 886.436 839.414 894.168 831.682C901.9 823.95 906.246 813.464 906.25 802.529Z" fill="#DD4A43"/>
<path d="M889.617 769.436L843.742 735.342V406.264C843.753 372.241 836.793 338.577 823.292 307.347C809.79 276.118 790.035 247.986 765.242 224.686C697.023 577.795 438.914 759.389 276.43 843.764H865.008C873.678 843.766 882.129 841.035 889.158 835.959C896.188 830.883 901.438 823.721 904.164 815.49C906.889 807.259 906.95 798.378 904.339 790.11C901.727 781.842 896.576 774.608 889.617 769.436Z" fill="#D13E37"/>
<path d="M593.75 171.89H468.75C464.606 171.89 460.632 170.244 457.701 167.314C454.771 164.383 453.125 160.409 453.125 156.265C453.125 152.121 454.771 148.147 457.701 145.217C460.632 142.286 464.606 140.64 468.75 140.64H593.75C597.894 140.64 601.868 142.286 604.799 145.217C607.729 148.147 609.375 152.121 609.375 156.265C609.375 160.409 607.729 164.383 604.799 167.314C601.868 170.244 597.894 171.89 593.75 171.89Z" fill="#7A4321"/>
<path d="M510.79 336.764L509.587 334.936C490.378 305.993 481.752 271.305 485.169 236.736C488.585 202.168 503.834 169.839 528.337 145.217C530.519 143.011 533.308 141.504 536.349 140.889C539.39 140.274 542.546 140.578 545.413 141.763C548.281 142.948 550.731 144.96 552.451 147.543C554.171 150.125 555.083 153.161 555.071 156.264C555.104 181.984 561.919 207.24 574.829 229.486C587.739 251.731 606.287 270.178 628.602 282.967L656.571 298.951L641.071 326.092L613.102 310.107C592.096 298.058 573.775 281.84 559.265 262.451C544.755 243.061 534.363 220.91 528.727 197.357C519.125 216.229 514.708 237.313 515.927 258.452C517.146 279.591 523.957 300.027 535.665 317.67L536.899 319.545L510.79 336.764Z" fill="#7A4321"/>
<path d="M406.25 656.265V906.265H31.25V656.265" fill="#7EA82D"/>
<path d="M437.5 562.515H0V656.265H437.5V562.515Z" fill="#7EA82D"/>
<path d="M125 437.515L218.75 562.515H109.375L46.875 484.39H109.375L125 437.515Z" fill="#D13E37"/>
<path d="M312.5 437.515L218.75 562.515H328.125L390.625 484.39H328.125L312.5 437.515Z" fill="#B5362F"/>
<path d="M406.25 656.265H31.25V703.14H406.25V656.265Z" fill="#729C22"/>
<path d="M265.625 562.515H171.875V906.265H265.625V562.515Z" fill="#DD4A43"/>
<path d="M302.312 363.296L272.031 355.484C282.155 316.139 303.883 280.751 334.391 253.921L355.094 277.359C329.259 300.046 310.865 329.995 302.312 363.296Z" fill="#E66B65"/>
<path d="M373.742 263.015L356.445 236.999C366.286 230.463 376.68 224.801 387.508 220.077L400.008 248.702C390.85 252.695 382.061 257.484 373.742 263.015Z" fill="#E66B65"/>
<path d="M109.375 765.64H78.125V859.39H109.375V765.64Z" fill="#95C43B"/>
<path d="M109.375 703.14H78.125V734.39H109.375V703.14Z" fill="#95C43B"/>
</svg>
