<svg width="24" height="24" viewBox="0 0 24 24" fill="none" xmlns="http://www.w3.org/2000/svg">
<path d="M7.88672 0.999939C6.92066 0.999939 6.10559 1.38845 5.63086 1.95306C5.15613 2.51768 5.00586 3.1607 5.00586 3.70306C5.00586 4.17491 5.12685 4.6117 5.31836 4.99994H5C3.895 4.99994 3 5.89494 3 6.99994V18.9999C3 20.1049 3.895 20.9999 5 20.9999H19C20.105 20.9999 21 20.1049 21 18.9999V6.99994C21 5.89494 20.105 4.99994 19 4.99994H18.6973C18.8833 4.6153 18.998 4.18077 18.998 3.71478C18.998 3.17159 18.8509 2.52611 18.377 1.95892C17.903 1.39173 17.0852 0.999939 16.1172 0.999939C14.303 0.999939 13.0154 2.17958 12.2324 3.21674C12.0801 3.41849 12.1281 3.42535 12.0059 3.61908C11.8794 3.41836 11.9269 3.41091 11.7676 3.20111C10.9848 2.17048 9.69703 0.999939 7.88672 0.999939ZM7.88672 2.99994C8.8194 2.99994 9.58728 3.63523 10.1758 4.4101C10.3288 4.61155 10.4604 4.81141 10.5742 4.99994H8.34766C7.94182 4.85614 7.57624 4.66293 7.35352 4.45306C7.10737 4.22112 7.00586 4.03249 7.00586 3.70306C7.00586 3.56343 7.06188 3.35706 7.16016 3.24017C7.25843 3.12329 7.38478 2.99994 7.88672 2.99994ZM16.1172 2.99994C16.6182 2.99994 16.7425 3.12331 16.8418 3.24213C16.9411 3.36094 16.998 3.57198 16.998 3.71478C16.998 4.04967 16.8992 4.23472 16.6562 4.46283C16.4361 4.66955 16.0714 4.85907 15.666 4.99994H13.4375C13.5494 4.81507 13.6796 4.61863 13.8281 4.42181C14.4179 3.64047 15.1863 2.99994 16.1172 2.99994ZM5 6.99994H11V12.0331H5V6.99994ZM13 6.99994H19V12.0331H13V6.99994ZM5 14.0331H11V18.9999H5V14.0331ZM13 14.0331H19V18.9999H13V14.0331Z" fill="white"/>
</svg>
