<svg width="844" height="907" viewBox="0 0 844 907" fill="none" xmlns="http://www.w3.org/2000/svg">
<path d="M718.75 718.791L719.453 720.916C778.661 661.999 819.046 586.832 835.492 504.94C851.938 423.048 843.704 338.117 811.835 260.909C779.965 183.7 725.893 117.69 656.471 71.2425C587.05 24.7948 505.402 0 421.875 0C338.348 0 256.701 24.7948 187.279 71.2425C117.857 117.69 63.7856 183.7 31.9158 260.909C0.0460334 338.117 -8.18751 423.048 8.25849 504.94C24.7045 586.832 65.0898 661.999 124.297 720.916L125 718.791" fill="#87CED9"/>
<path d="M116.941 713.226C119.395 715.789 121.801 718.414 124.316 720.914L125.02 718.789H136.535C129.957 717.055 123.457 715.226 116.941 713.226Z" fill="#71C4D1"/>
<path d="M713.152 116.913C732.11 178.353 738.451 242.99 731.794 306.943C725.138 370.895 705.622 432.842 674.418 489.06C643.215 545.279 600.968 594.609 550.217 634.087C499.466 673.565 441.258 702.376 379.09 718.788H718.73L719.434 720.913C759.353 681.214 790.917 633.922 812.264 581.827C833.611 529.733 844.309 473.89 843.726 417.595C843.144 361.299 831.293 305.69 808.872 254.048C786.452 202.406 753.916 155.778 713.184 116.913H713.152Z" fill="#71C4D1"/>
<path d="M781.25 906.288H62.5L125 718.788H718.75L781.25 906.288Z" fill="#995023"/>
<path d="M718.766 718.788H621.969C528.031 815.476 402.828 872.632 294.25 906.288H781.266L718.766 718.788Z" fill="#80421C"/>
<path d="M94.3867 317.309L64.6992 307.777C85.8659 241.833 124.855 183.026 177.355 137.855L197.762 161.527C149.596 202.927 113.819 256.842 94.3867 317.309Z" fill="#AADDE6"/>
<path d="M228.395 137.931L210.754 112.134C226.066 101.672 242.131 92.3545 258.816 84.259L272.473 112.384C257.175 119.81 242.443 128.349 228.395 137.931Z" fill="#AADDE6"/>
<path d="M562.5 781.288H281.25V843.788H562.5V781.288Z" fill="#FFA230"/>
<path d="M265.625 453.163L171.875 562.538V718.788H359.375V562.538L265.625 453.163Z" fill="#DD4A43"/>
<path d="M546.875 562.538H359.375V718.788H546.875V562.538Z" fill="#D13E37"/>
<path d="M296.875 609.413H234.375V718.788H296.875V609.413Z" fill="#70320F"/>
<path d="M437.5 609.413H406.25V656.288H437.5V609.413Z" fill="#70320F"/>
<path d="M500 609.413H468.75V656.288H500V609.413Z" fill="#70320F"/>
<path d="M453.125 390.663H390.625V453.163H453.125V390.663Z" fill="#EBEBE8"/>
<path d="M640.625 468.788H671.875L609.375 359.413L546.875 468.788H578.125L546.875 546.913H578.125L546.875 640.663H671.875L640.625 546.913H671.875L640.625 468.788Z" fill="#EBEBE8"/>
<path d="M625 640.663H593.75V718.788H625V640.663Z" fill="#80421C"/>
<path d="M390.625 265.663H359.375V296.913H390.625V265.663Z" fill="#EBEBE8"/>
<path d="M328.125 171.913H296.875V203.163H328.125V171.913Z" fill="#EBEBE8"/>
<path d="M765.625 390.663H734.375V421.913H765.625V390.663Z" fill="#EBEBE8"/>
<path d="M687.5 234.413H656.25V265.663H687.5V234.413Z" fill="#EBEBE8"/>
<path d="M93.75 468.788H62.5V500.038H93.75V468.788Z" fill="#EBEBE8"/>
<path d="M468.75 62.5383H437.5V93.7883H468.75V62.5383Z" fill="#EBEBE8"/>
<path d="M531.25 203.163H500V234.413H531.25V203.163Z" fill="#EBEBE8"/>
<path d="M187.5 343.788H156.25V375.038H187.5V343.788Z" fill="#EBEBE8"/>
<path d="M562.5 843.788H281.25V875.038H562.5V843.788Z" fill="#80421C"/>
<path d="M546.875 562.538H359.375V593.788H546.875V562.538Z" fill="#BA3731"/>
<path d="M265.625 453.163H453.125L546.875 562.538H359.375L265.625 453.163Z" fill="#EBEBE8"/>
<path d="M625 640.663H593.75V671.913H625V640.663Z" fill="#70320F"/>
<path d="M562.5 812.538H281.25V843.788H562.5V812.538Z" fill="#DE6E12"/>
</svg>
