<svg width="688" height="909" viewBox="0 0 688 909" fill="none" xmlns="http://www.w3.org/2000/svg">
<path d="M656.25 0H281.25C263.991 0 250 13.9911 250 31.25V156.25C250 173.509 263.991 187.5 281.25 187.5H656.25C673.509 187.5 687.5 173.509 687.5 156.25V31.25C687.5 13.9911 673.509 0 656.25 0Z" fill="#E3E3E1"/>
<path d="M656.234 0H652.484C591.859 116.797 462.766 166.422 363.891 187.5H656.234C664.522 187.5 672.471 184.208 678.331 178.347C684.192 172.487 687.484 164.538 687.484 156.25V31.25C687.484 22.962 684.192 15.0134 678.331 9.15291C672.471 3.2924 664.522 0 656.234 0Z" fill="#DBDBD9"/>
<path d="M640.625 187.5H296.875V468.75L93.75 575.688C65.4695 590.561 41.7895 612.878 25.2672 640.228C8.74481 667.578 0.00793507 698.922 0 730.875C0 777.387 18.477 821.995 51.3661 854.884C84.2553 887.773 128.863 906.25 175.375 906.25H178.734C205.075 906.248 231.078 900.315 254.813 888.891L552.156 745.719C578.659 732.959 601.021 712.978 616.671 688.073C632.322 663.168 640.625 634.352 640.625 604.938V187.5Z" fill="#DD4A43"/>
<path d="M197.669 899.705L46.5751 614.814C44.6592 611.149 44.2741 606.875 45.5042 602.927C46.7343 598.979 49.4793 595.679 53.1376 593.752C56.8034 591.825 61.0842 591.432 65.0395 592.659C68.9947 593.887 72.3009 596.634 74.2314 600.298L225.31 885.158C227.236 888.824 227.629 893.104 226.402 897.06C225.174 901.015 222.427 904.321 218.763 906.252C215.097 908.179 210.816 908.571 206.861 907.344C202.906 906.116 199.599 903.369 197.669 899.705Z" fill="#7EA82D"/>
<path d="M275.647 868.841L113.241 574.997C112.256 573.194 111.636 571.214 111.417 569.171C111.198 567.128 111.384 565.062 111.965 563.092C112.545 561.121 113.509 559.283 114.8 557.685C116.092 556.087 117.686 554.76 119.491 553.778C123.107 551.808 127.354 551.344 131.31 552.488C135.266 553.632 138.61 556.291 140.616 559.888L303.022 853.778C305.019 857.409 305.492 861.683 304.338 865.663C303.183 869.642 300.495 872.999 296.866 874.997C293.236 876.994 288.961 877.467 284.982 876.313C281.003 875.158 277.645 872.471 275.647 868.841Z" fill="#7EA82D"/>
<path d="M562.497 499.997C558.353 499.996 554.379 498.349 551.45 495.418L468.747 412.715L397.09 484.372C391.23 490.23 383.283 493.521 374.997 493.521C366.71 493.521 358.763 490.23 352.903 484.372L296.872 428.34C293.942 425.41 292.297 421.437 292.297 417.294C292.297 413.15 293.942 409.177 296.872 406.247C299.802 403.317 303.775 401.672 307.919 401.672C312.062 401.672 316.035 403.317 318.965 406.247L374.997 462.278L457.7 379.575C460.63 376.646 464.603 375 468.747 375C472.89 375 476.863 376.646 479.794 379.575L562.497 462.278L618.528 406.247C621.458 403.317 625.432 401.672 629.575 401.672C633.718 401.672 637.691 403.317 640.622 406.247C643.551 409.177 645.196 413.15 645.196 417.294C645.196 421.437 643.551 425.41 640.622 428.34L573.544 495.418C570.614 498.349 566.64 499.996 562.497 499.997Z" fill="#7EA82D"/>
<path d="M562.497 374.997C558.353 374.996 554.379 373.349 551.45 370.419L468.747 287.715L397.09 359.372C391.23 365.23 383.283 368.521 374.997 368.521C366.71 368.521 358.763 365.23 352.903 359.372L296.872 303.34C293.942 300.41 292.297 296.437 292.297 292.294C292.297 288.15 293.942 284.177 296.872 281.247C299.802 278.317 303.775 276.672 307.919 276.672C312.062 276.672 316.035 278.317 318.965 281.247L374.997 337.278L457.7 254.575C460.63 251.646 464.603 250 468.747 250C472.89 250 476.863 251.646 479.794 254.575L562.497 337.278L618.528 281.247C621.458 278.317 625.432 276.672 629.575 276.672C633.718 276.672 637.691 278.317 640.622 281.247C643.551 284.177 645.196 288.15 645.196 292.294C645.196 296.437 643.551 300.41 640.622 303.34L573.544 370.419C570.614 373.349 566.64 374.996 562.497 374.997Z" fill="#7EA82D"/>
<path d="M578.125 46.875H546.875V187.5H578.125V46.875Z" fill="#C9C9C8"/>
<path d="M515.625 46.875H484.375V187.5H515.625V46.875Z" fill="#C9C9C8"/>
<path d="M453.125 46.875H421.875V187.5H453.125V46.875Z" fill="#C9C9C8"/>
<path d="M390.625 46.875H359.375V187.5H390.625V46.875Z" fill="#C9C9C8"/>
<path d="M640.625 46.875H609.375V187.5H640.625V46.875Z" fill="#C9C9C8"/>
<path d="M328.125 109.375H296.875V187.5H328.125V109.375Z" fill="#C9C9C8"/>
<path d="M328.125 46.875H296.875V78.125H328.125V46.875Z" fill="#C9C9C8"/>
<path d="M632.241 532.439C606.261 536.151 581.394 545.45 559.353 559.695C537.311 573.94 518.619 592.793 504.564 614.955C490.508 637.118 481.423 662.063 477.933 688.074C474.443 714.085 476.633 740.543 484.35 765.627L489.194 776.017L552.131 745.72C578.633 732.96 600.996 712.979 616.646 688.074C632.297 663.17 640.6 634.353 640.6 604.939V531.501L632.241 532.439Z" fill="#7EA82D"/>
<path d="M640.625 187.5H296.875V234.375H640.625V187.5Z" fill="#D13E37"/>
</svg>
