<svg width="853" height="904" viewBox="0 0 853 904" fill="none" xmlns="http://www.w3.org/2000/svg">
<path d="M426.027 125C413.666 125 401.582 121.334 391.304 114.467C381.026 107.599 373.015 97.8381 368.285 86.4177C363.554 74.9974 362.317 62.4307 364.728 50.3069C367.14 38.1831 373.092 27.0466 381.833 18.3059C390.574 9.56507 401.71 3.61252 413.834 1.20095C425.958 -1.21063 438.525 0.0270801 449.945 4.75756C461.365 9.48803 471.127 17.4988 477.994 27.7769C484.862 38.055 488.527 50.1387 488.527 62.5C488.527 79.0761 481.943 94.9732 470.222 106.694C458.5 118.415 442.603 125 426.027 125ZM426.027 31.25C419.847 31.25 413.805 33.0828 408.666 36.5166C403.527 39.9504 399.521 44.831 397.156 50.5412C394.791 56.2514 394.172 62.5347 395.378 68.5966C396.584 74.6585 399.56 80.2267 403.93 84.5971C408.301 88.9675 413.869 91.9438 419.931 93.1496C425.993 94.3554 432.276 93.7365 437.986 91.3713C443.696 89.006 448.577 85.0006 452.011 79.8616C455.445 74.7226 457.277 68.6807 457.277 62.5C457.277 54.212 453.985 46.2635 448.124 40.4029C442.264 34.5424 434.315 31.25 426.027 31.25Z" fill="#FD9A30"/>
<path d="M448.381 145.112L576.662 350.363C578.446 353.213 580.787 355.675 583.544 357.6C586.301 359.525 589.418 360.873 592.709 361.566L832.725 412.097C837.187 413.034 841.308 415.173 844.641 418.284C847.975 421.394 850.395 425.357 851.638 429.743C852.882 434.129 852.903 438.772 851.698 443.17C850.493 447.567 848.109 451.551 844.803 454.691L669.944 621.534C667.012 624.333 664.805 627.801 663.512 631.642C662.219 635.483 661.879 639.58 662.522 643.581L699.6 874.05C700.327 878.579 699.795 883.221 698.061 887.467C696.327 891.714 693.458 895.401 689.768 898.126C686.078 900.851 681.71 902.508 677.141 902.917C672.573 903.325 667.98 902.468 663.865 900.441L437.115 788.55C433.675 786.852 429.89 785.969 426.053 785.969C422.216 785.969 418.431 786.852 414.99 788.55L188.24 900.441C184.126 902.468 179.533 903.325 174.964 902.917C170.396 902.508 166.027 900.851 162.338 898.126C158.648 895.401 155.779 891.714 154.045 887.467C152.311 883.221 151.778 878.579 152.506 874.05L189.584 643.581C190.227 639.58 189.887 635.483 188.594 631.642C187.301 627.801 185.094 624.333 182.162 621.534L7.69353 455.05C4.39901 451.89 2.03275 447.888 0.851449 443.478C-0.329855 439.068 -0.2811 434.419 0.992414 430.035C2.26593 425.651 4.71558 421.699 8.07565 418.609C11.4357 415.518 15.5779 413.407 20.0529 412.503L274.162 361.675C277.694 360.97 281.031 359.511 283.947 357.396C286.862 355.282 289.286 352.563 291.053 349.425L405.397 146.144C407.52 142.362 410.591 139.198 414.308 136.962C418.025 134.726 422.259 133.496 426.595 133.392C430.931 133.288 435.22 134.314 439.039 136.369C442.859 138.423 446.078 141.437 448.381 145.112Z" fill="#FDB62F"/>
<path d="M285.414 359.375L274.148 361.625L20.0391 412.5C15.6033 413.354 11.4866 415.408 8.13671 418.438C4.78679 421.468 2.33192 425.359 1.03906 429.688L426.039 546.875L285.414 359.375Z" fill="#FD9A30"/>
<path d="M582.277 359.372L576.637 350.356L525.324 268.247L448.355 145.091C446.018 141.327 442.713 138.26 438.785 136.21C434.858 134.16 430.452 133.201 426.027 133.435V546.872L582.277 359.372Z" fill="#FD9A30"/>
<path d="M660.402 630.597L669.918 621.534L716.184 577.378L844.777 454.691C848.122 451.538 850.52 447.514 851.701 443.073C852.883 438.631 852.801 433.948 851.465 429.55L426.027 546.878L660.402 630.597Z" fill="#FD9A30"/>
<path d="M426.027 783.078L486.762 813.062L663.84 900.438C667.91 902.478 672.466 903.352 677.002 902.963C681.539 902.574 685.879 900.938 689.543 898.234L426.027 546.875V783.078Z" fill="#FD9A30"/>
<path d="M191.663 630.594L152.491 874.047C151.816 878.111 152.178 882.28 153.544 886.167C154.909 890.053 157.234 893.533 160.303 896.281C219.256 811.312 426.038 546.875 426.038 546.875L191.663 630.594Z" fill="#FD9A30"/>
</svg>
