<svg width="907" height="907" viewBox="0 0 907 907" fill="none" xmlns="http://www.w3.org/2000/svg">
<path d="M885.942 377.536C872.662 354.577 865.657 328.528 865.63 302.005C865.627 275.492 858.645 249.447 845.387 226.488C832.128 203.528 813.06 184.463 790.099 171.208C767.146 157.943 748.082 138.879 734.817 115.927C721.568 92.9777 702.514 73.9178 679.57 60.6603C656.626 47.4027 630.598 40.4139 604.099 40.3954C577.589 40.4234 551.539 33.4717 528.567 20.2392C505.609 6.98037 479.564 0 453.052 0C426.54 0 400.495 6.98037 377.536 20.2392C354.58 33.5263 328.529 40.5321 302.005 40.5517C275.494 40.5549 249.451 47.5348 226.492 60.7902C203.533 74.0457 184.466 93.1098 171.208 116.067C157.943 139.02 138.879 158.083 115.927 171.349C92.9858 184.592 73.931 203.635 60.6738 226.567C47.4166 249.5 40.4233 275.516 40.3954 302.005C40.4161 328.514 33.4648 354.562 20.2392 377.536C6.98037 400.495 0 426.54 0 453.052C0 479.564 6.98037 505.609 20.2392 528.567C33.5194 551.526 40.5248 577.575 40.5517 604.099C40.5549 630.611 47.5365 656.656 60.7949 679.616C74.0533 702.575 93.1214 721.64 116.083 734.895C139.035 748.161 158.099 767.224 171.364 790.177C184.619 813.138 203.684 832.206 226.644 845.465C249.603 858.723 275.648 865.705 302.161 865.708C328.685 865.727 354.736 872.733 377.692 886.02C400.651 899.279 426.696 906.26 453.208 906.26C479.72 906.26 505.765 899.279 528.724 886.02C551.68 872.733 577.731 865.727 604.255 865.708C630.768 865.705 656.812 858.723 679.772 845.465C702.731 832.206 721.797 813.138 735.052 790.177C748.317 767.224 767.38 748.161 790.333 734.895C813.294 721.64 832.363 702.575 845.621 679.616C858.879 656.656 865.861 630.611 865.864 604.099C865.891 577.575 872.896 551.526 886.177 528.567C899.4 505.588 906.34 479.532 906.299 453.02C906.258 426.508 899.237 400.474 885.942 377.536ZM453.052 656.177C412.877 656.177 373.605 644.264 340.202 621.944C306.798 599.624 280.763 567.901 265.389 530.784C250.015 493.668 245.992 452.826 253.83 413.424C261.667 374.022 281.013 337.828 309.421 309.421C337.828 281.013 374.022 261.667 413.424 253.83C452.826 245.992 493.668 250.015 530.784 265.389C567.901 280.763 599.624 306.798 621.944 340.202C644.264 373.605 656.177 412.877 656.177 453.052C656.177 506.924 634.776 558.589 596.683 596.683C558.589 634.776 506.924 656.177 453.052 656.177Z" fill="#7EA82D"/>
<path d="M885.922 377.539C872.642 354.58 865.636 328.531 865.609 302.007C865.606 275.495 858.625 249.45 845.366 226.49C832.108 203.531 813.04 184.466 790.078 171.211C774.655 162.2 760.953 150.524 749.609 136.726C733.671 230.978 699.719 321.276 649.609 402.679C658.809 438.204 658.19 475.561 647.82 510.762C637.45 545.963 617.716 577.688 590.726 602.551C563.736 627.414 530.501 644.483 494.569 651.936C458.637 659.388 421.355 656.945 386.703 644.867C303.785 688.832 215.03 720.767 123.109 739.711C142.855 752.543 159.321 769.822 171.187 790.164C184.442 813.125 203.508 832.193 226.467 845.452C249.427 858.71 275.472 865.692 301.984 865.695C328.508 865.714 354.56 872.72 377.516 886.007C400.474 899.266 426.519 906.247 453.031 906.247C479.543 906.247 505.588 899.266 528.547 886.007C551.503 872.72 577.554 865.714 604.078 865.695C630.591 865.692 656.636 858.71 679.595 845.452C702.555 832.193 721.62 813.125 734.875 790.164C748.14 767.211 767.204 748.148 790.156 734.882C813.118 721.627 832.186 702.562 845.444 679.603C858.703 656.643 865.684 630.598 865.688 604.086C865.714 577.562 872.72 551.513 886 528.554C899.244 505.591 906.209 479.545 906.196 453.036C906.182 426.527 899.19 400.489 885.922 377.539Z" fill="#729C22"/>
<path d="M343.688 265.549L281.188 453.049L343.688 437.424L390.562 499.924L453.062 265.549H343.688Z" fill="#B83630"/>
<path d="M562.438 265.549L624.938 453.049L562.438 437.424L515.562 499.924L453.062 265.549H562.438Z" fill="#B83630"/>
<path d="M283.88 69.9889L262.161 135.13C260.688 139.55 260.222 144.245 260.798 148.869C261.374 153.493 262.976 157.93 265.489 161.854C268.001 165.779 271.359 169.092 275.317 171.551C279.275 174.011 283.733 175.553 288.364 176.067L390.567 187.426L437.442 124.926L330.864 53.8639C326.865 51.1979 322.306 49.49 317.54 48.8731C312.774 48.2561 307.93 48.7468 303.384 50.3068C298.838 51.8668 294.714 54.4543 291.331 57.8679C287.948 61.2815 285.398 65.4294 283.88 69.9889Z" fill="#D13E37"/>
<path d="M390.545 187.424L285.029 210.861C280.664 211.831 276.558 213.727 272.988 216.42C269.418 219.113 266.468 222.541 264.337 226.472C262.206 230.403 260.943 234.746 260.633 239.206C260.324 243.667 260.976 248.143 262.545 252.33L282.967 306.783C284.619 311.197 287.249 315.179 290.658 318.433C294.068 321.686 298.169 324.127 302.655 325.571C307.142 327.015 311.896 327.426 316.563 326.773C321.231 326.12 325.69 324.419 329.607 321.799L437.42 249.924L390.545 187.424Z" fill="#D13E37"/>
<path d="M622.25 69.9889L643.969 135.13C645.442 139.55 645.907 144.245 645.332 148.869C644.756 153.493 643.153 157.93 640.641 161.854C638.129 165.779 634.771 169.092 630.813 171.551C626.855 174.011 622.397 175.553 617.766 176.067L515.563 187.426L468.688 124.926L575.266 53.8639C579.264 51.1979 583.824 49.49 588.59 48.8731C593.356 48.2561 598.2 48.7468 602.746 50.3068C607.291 51.8668 611.416 54.4543 614.799 57.8679C618.181 61.2815 620.731 65.4294 622.25 69.9889Z" fill="#D13E37"/>
<path d="M515.562 187.424L621.078 210.861C625.443 211.831 629.549 213.727 633.119 216.42C636.689 219.113 639.639 222.541 641.77 226.472C643.902 230.403 645.165 234.746 645.474 239.206C645.783 243.667 645.131 248.143 643.563 252.33L623.141 306.799C621.486 311.211 618.856 315.192 615.445 318.444C612.035 321.696 607.933 324.134 603.447 325.577C598.962 327.02 594.207 327.429 589.541 326.775C584.874 326.121 580.416 324.42 576.5 321.799L468.688 249.924L515.562 187.424Z" fill="#D13E37"/>
<path d="M390.543 155.711L339.402 143.867C335.386 142.86 331.934 140.3 329.804 136.749C327.674 133.198 327.041 128.947 328.043 124.93C329.05 120.913 331.61 117.461 335.161 115.331C338.712 113.201 342.963 112.568 346.98 113.57L398.121 125.398C402.141 126.405 405.595 128.968 407.726 132.522C409.856 136.077 410.487 140.332 409.48 144.351C408.473 148.368 405.913 151.82 402.362 153.95C398.811 156.08 394.56 156.713 390.543 155.711Z" fill="#B3352F"/>
<path d="M328.043 249.927C327.041 245.91 327.674 241.659 329.804 238.108C331.934 234.557 335.386 231.997 339.402 230.99L390.543 219.146C394.56 218.144 398.811 218.777 402.362 220.907C405.913 223.037 408.473 226.489 409.48 230.505C410.487 234.525 409.856 238.78 407.726 242.334C405.595 245.889 402.141 248.451 398.121 249.458L346.98 261.287C342.963 262.289 338.712 261.655 335.161 259.525C331.61 257.396 329.05 253.943 328.043 249.927Z" fill="#B3352F"/>
<path d="M559.135 113.564L511.798 125.41C503.427 127.505 498.338 135.986 500.432 144.354C502.526 152.721 511.01 157.805 519.381 155.71L566.718 143.864C575.089 141.769 580.178 133.288 578.084 124.921C575.99 116.554 567.507 111.469 559.135 113.564Z" fill="#B3352F"/>
<path d="M559.121 261.287L507.98 249.458C503.96 248.451 500.505 245.889 498.375 242.334C496.245 238.78 495.614 234.525 496.621 230.505C497.628 226.489 500.188 223.037 503.739 220.907C507.29 218.777 511.541 218.144 515.558 219.146L566.699 230.99C570.715 231.997 574.167 234.557 576.297 238.108C578.427 241.659 579.06 245.91 578.058 249.927C577.051 253.943 574.491 257.396 570.94 259.525C567.389 261.655 563.138 262.289 559.121 261.287Z" fill="#B3352F"/>
<path d="M796.812 515.549H765.562C765.563 540.413 775.44 564.259 793.021 581.84C810.603 599.422 834.448 609.299 859.312 609.299H890.562C890.562 584.435 880.685 560.589 863.104 543.008C845.522 525.426 821.677 515.549 796.812 515.549Z" fill="#97C936"/>
<path d="M390.562 718.674V749.924C415.427 749.924 439.272 740.047 456.854 722.465C474.435 704.884 484.312 681.038 484.312 656.174V624.924C459.448 624.924 435.603 634.801 418.021 652.383C400.44 669.964 390.562 693.81 390.562 718.674Z" fill="#97C936"/>
<path d="M62.4375 187.424H31.1875C31.1875 212.288 41.0647 236.134 58.6462 253.715C76.2278 271.297 100.073 281.174 124.938 281.174H156.188C156.188 256.31 146.31 232.464 128.729 214.883C111.147 197.301 87.3015 187.424 62.4375 187.424Z" fill="#97C936"/>
<path d="M109.312 515.549C135.201 515.549 156.188 494.562 156.188 468.674C156.188 442.786 135.201 421.799 109.312 421.799C83.4242 421.799 62.4375 442.786 62.4375 468.674C62.4375 494.562 83.4242 515.549 109.312 515.549Z" fill="#DD4A43"/>
<path d="M765.562 359.299C791.451 359.299 812.438 338.312 812.438 312.424C812.438 286.536 791.451 265.549 765.562 265.549C739.674 265.549 718.688 286.536 718.688 312.424C718.688 338.312 739.674 359.299 765.562 359.299Z" fill="#DD4A43"/>
<path d="M624.938 765.549C650.826 765.549 671.812 744.562 671.812 718.674C671.812 692.786 650.826 671.799 624.938 671.799C599.049 671.799 578.062 692.786 578.062 718.674C578.062 744.562 599.049 765.549 624.938 765.549Z" fill="#DD4A43"/>
<path d="M249.938 734.299C275.826 734.299 296.812 713.312 296.812 687.424C296.812 661.536 275.826 640.549 249.938 640.549C224.049 640.549 203.062 661.536 203.062 687.424C203.062 713.312 224.049 734.299 249.938 734.299Z" fill="#DD4A43"/>
<path d="M484.312 93.6739H421.812C404.554 93.6739 390.562 107.665 390.562 124.924V249.924C390.562 267.183 404.554 281.174 421.812 281.174H484.312C501.571 281.174 515.562 267.183 515.562 249.924V124.924C515.562 107.665 501.571 93.6739 484.312 93.6739Z" fill="#DD4A43"/>
<path d="M390.549 140.55L390.539 140.562C384.857 147.056 385.515 156.927 392.009 162.61L493.489 251.405C499.983 257.088 509.855 256.43 515.537 249.935L515.548 249.924C521.23 243.429 520.572 233.558 514.078 227.875L412.598 139.08C406.103 133.398 396.232 134.056 390.549 140.55Z" fill="#D13E37"/>
</svg>
